<svg xmlns="http://www.w3.org/2000/svg" width="497px" height="732px" xmlns:xlink="http://www.w3.org/1999/xlink" viewBox="0 0 288 288" preserveAspectRatio="xMidYMid meet" ><rect id="svgEditorBackground" x="0" y="0" width="288" height="288" style="fill: none; stroke: none;"/><g style="fill:rgb(210,211,211);fill-rule:evenodd;stroke:rgb(210,211,211);stroke-width:0.1;" id="l1"><path d="M0,0h139v1c-12,0,-12,1,-19,2c-6,0,-6,1,-9,2c-5,0,-5,1,-14,4c-3,0,-3,1,-5,2c-3,0,-3,1,-7,3c-3,0,-3,1,-7,3l-2,1c-2,0,-2,1,-3,2l-2,1c-2,0,-2,1,-3,2c-2,0,-2,1,-3,2c-2,0,-2,1,-3,2c-2,0,-2,1,-3,2c-2,0,-2,1,-5,4c-2,0,-2,1,-7,6c-2,0,-2,1,-3,2h-1v2l-2,1h-2v3l-5,5h-1v2l-3,3h-1v2l-1,1h-1v2l-1,1h-1v2l-1,1h-1v2l-1,1h-1v2l-1,2l-1,1h-1v2l-2,4l-1,2h-1v3l-2,4h-1v3l-1,2h-1v3l-2,6l-1,3h-1v5l-1,3h-1v6l-1,6h-1v13h-1Z" style="fill:none;"/><path d="M147,0h1v1h-1ZM149,0h139v138h-1v-12h-1c0,-6,-1,-6,-2,-11c0,-5,-1,-5,-2,-8c0,-4,-1,-4,-3,-10c0,-4,-1,-4,-4,-10c0,-3,-1,-3,-5,-11c0,-2,-1,-2,-2,-3l-1,-2c0,-2,-1,-2,-2,-3c0,-2,-1,-2,-2,-3c0,-2,-1,-2,-2,-3c0,-2,-1,-2,-2,-3c0,-2,-1,-2,-3,-4l-1,-1c0,-2,-1,-2,-10,-11l-1,-2v-1h-2l-6,-6v-1h-2l-3,-3v-1h-2l-1,-1v-1h-2l-1,-1v-1h-2l-1,-1v-1h-2l-1,-1v-1h-2l-4,-2l-1,-1v-1h-2l-4,-2l-2,-1v-1h-3l-2,-1v-1h-3l-2,-1v-1h-3l-6,-2l-3,-1v-1h-4l-4,-1c0,-1,-6,-1,-13,-2v-1h-12Z" style="fill:none;"/><path d="M55,58h56v116h1c0,5,1,5,2,7l1,3c0,2,1,2,2,3c0,2,1,2,6,7l1,1v1h2l1,1v1h2l2,1v1h3l3,1v1c14,0,14,-1,17,-2c3,0,3,-1,5,-2c2,0,2,-1,3,-2c2,0,2,-1,7,-6l1,-1h1v-2l1,-1h1v-2l1,-2h1v-3c1,0,1,-4,2,-121h56v124l-2,10l-3,9l-1,3l-5,10l-1,1h-1v2l-1,1h-1v2l-1,1h-1v2l-2,2h-1v2l-10,10c-2,0,-2,1,-4,3l-1,1c-2,0,-2,1,-4,3c-2,0,-2,1,-3,2l-14,7l-9,3l-10,2l-11,1h-5l-12,-1l-10,-2l-9,-3l-14,-7l-1,-1v-1h-2l-2,-2v-1h-2l-2,-2v-1h-2l-11,-11c0,-2,-1,-2,-3,-4c0,-2,-1,-2,-2,-3c0,-2,-1,-2,-2,-3c0,-2,-1,-2,-2,-3l-5,-10l-3,-9l-2,-8l-1,-6Z" style="fill:black;"/><path d="M0,146h1v2h-1ZM0,149h1c0,13,1,13,2,19c0,6,1,6,2,10c0,4,1,4,4,13c0,4,1,4,2,5c0,3,1,3,3,7c0,3,1,3,3,7c0,2,1,2,2,3l2,4c0,2,1,2,2,3c0,2,1,2,2,3c0,2,1,2,2,3c0,2,1,2,2,3c0,2,1,2,4,5c0,2,1,2,7,8v1l-1,1h2l2,1l9,9v1h2l3,3v1h2l1,1v1h2l1,1v1h2l1,1v1h2l1,1v1h2l2,1l1,1v1h2l8,4v1h3l2,1l4,2v1h4l6,2v1h4l3,1v1h5l5,1c0,1,6,1,19,2v1h-139Z" style="fill:none;"/><path d="M287,150h1v138h-139v-1c13,0,13,-1,19,-2c5,0,5,-1,9,-2c5,0,5,-1,17,-5c3,0,3,-1,7,-3c3,0,3,-1,11,-5c2,0,2,-1,3,-2l2,-1c2,0,2,-1,3,-2c2,0,2,-1,3,-2c2,0,2,-1,3,-2c2,0,2,-1,3,-2c2,0,2,-1,5,-4c2,0,2,-1,6,-5h1v-1l5,-5l8,-8h1v-2l3,-3h1v-2l1,-1h1v-2l1,-1h1v-2l1,-1h1v-2l1,-1h1v-2l1,-2l1,-1h1v-2l4,-8l1,-2h1v-3l1,-2h1v-3l2,-6l2,-6h1v-5l1,-4c1,0,1,-5,2,-11h1Z" style="fill:none;"/></g><g style="fill:rgb(52,109,161);fill-rule:evenodd;stroke:rgb(52,109,161);stroke-width:0.1;" id="l3"><path d="M106,5h2v1h-2ZM227,27h1l1,1v1h-1l-1,-1ZM50,35h1v1l-1,1h-1v-1ZM237,35h1l1,1v1h-1l-1,-1ZM36,49h1v1l-1,1h-1v-1ZM54,58h1v116h-1Z"/><path d="M28,59h1v1l-1,1h-1v-1zm205,0h1v115h-1z"/><path d="M283,110h1v2h-1zm1,5h1v2h-1zm1,5h1v2h-1zm-230,61h1v2h-1zm1,6h1v2h-1zm175,0h1v2h-1zm-174,4h1v2h-1zm80,10h2v1h-2zm82,16h1v1l-1,1h-1v-1zm-2,3h1v1l-1,1h-1v-1zm-3,4h1v1l-1,1h-1v-1zm-187,3h1l1,1v1h-1l-1-1zm181,4h1v1l-2,2h-1v-1zm-173,6h1l1,1v1h-1l-1-1zm52,1h1l1,1v1h-1l-1-1zm23,45h2v1h-2zm10,2h2v1h-2z"/></g><g style="fill:rgb(146,181,207);fill-rule:evenodd;stroke:rgb(146,181,207);stroke-width:0.1;" id="l5"><path d="M142,0h5v1h-5zm6,0h1v1h-1zm24,3h2v1h-2zm8,2h2v1h-2zm-123,24h1v1l-1,1h-1v-1zm-12,10h1v1l-2,2h-1v-1zm198,1h1l1,1v1h-1l-1-1zm-202,3h1v1l-2,2h-1v-2zm216,13h1l1,1v1h-1l-1-1zm30,82h1v1h-1zm-287,1h1v2h-1zm0,3h1v4h-1zm287,0h1v8h-1zm-287,6h1v1h-1zm3,24h1v2h-1zm2,8h1v2h-1zm4,13h1v2h-1zm187,48h1v1l-1,1h-1v-1zm-157,2h2l1,1v1h-1l-2-1zm17,14h1l1,1v1h-1l-1-1zm83,1h3v1h-3zm8,0h2v1h-2zm-5,29h7v1h-7z"/></g><g style="fill:rgb(14,78,131);fill-rule:evenodd;stroke:rgb(14,78,131);stroke-width:0.1;" id="l6"><path d="M1,131h1v2h-1ZM286,131h1v2h-1ZM1,155h1v2h-1ZM286,155h1v2h-1Z"/></g><g style="fill:rgb(133,164,190);fill-rule:evenodd;stroke:rgb(133,164,190);stroke-width:0.1;" id="l7"><path d="M141,0h1v1h-1zm-89,33h1v1l-1,1h-1v-1zm235,107h1v1h-1zm-287,1h1v1h-1zm139,146h2v1h-2z"/></g><g style="fill:rgb(118,163,204);fill-rule:evenodd;stroke:rgb(118,163,204);stroke-width:0.1;" id="l8"><path d="M158,1h3v1h-3zm43,236h1v1l-2,2h-1v-1z"/></g><g style="fill:rgb(4,76,148);fill-rule:evenodd;stroke:rgb(4,76,148);stroke-width:0.1;" id="l9"><path d="M101,248h1v2h-1zm85,0h1v2h-1z"/></g><g style="fill:rgb(174,185,188);fill-rule:evenodd;stroke:rgb(174,185,188);stroke-width:0.1;" id="l10"><path d="M139,0h2v1h-2zm148,139h1v1h-1z"/></g><g style="fill:rgb(60,124,174);fill-rule:evenodd;stroke:rgb(60,124,174);stroke-width:0.1;" id="l11"><path d="M158,257h2v1h-2z"/></g><path d="M130,1h28l8,1l12,2l2,1v1h5l9,3l2,1v1h3l2,1v1h3l8,4l1,1v1h2l4,2l1,1v1h2l1,1v1h2l3,3v1h2l1,1v1h2l5,5v1h2l12,12c0,2,1,2,5,6c0,2,1,2,4,5c0,2,1,2,2,3c0,2,1,2,2,3c0,2,1,2,2,3l1,2c0,2,1,2,2,3l5,10c0,3,1,3,3,7c0,4,1,4,2,6l2,6l1,4l3,15l1,8v28l-1,10l-1,5l-1,4h-1v5l-3,9l-2,6l-1,2h-1v3l-6,12l-1,1h-1v2l-1,2l-1,1h-1v2l-1,1h-1v2l-1,1h-1v2l-3,3h-1v2l-1,1l-3,3h-1v2l-13,13c-2,0,-2,1,-4,3l-2,2c-2,0,-2,1,-5,4c-2,0,-2,1,-3,2c-2,0,-2,1,-3,2c-2,0,-2,1,-3,2l-2,1c-2,0,-2,1,-3,2l-10,5c-3,0,-3,1,-7,3l-15,5c-5,0,-5,1,-9,2l-7,1l-8,1h-29l-7,-1l-7,-1l-3,-1v-1h-5l-4,-1l-6,-2l-2,-1v-1h-4l-4,-2v-1h-3l-10,-5l-1,-1v-1h-2l-2,-1l-1,-1v-1h-2l-1,-1v-1h-2l-1,-1v-1h-2l-3,-3v-1h-2l-1,-1l-3,-3v-1h-2l-12,-12c0,-2,-1,-2,-6,-7c0,-2,-1,-2,-2,-3c0,-2,-1,-2,-4,-5c0,-2,-1,-2,-2,-3c0,-2,-1,-2,-2,-3l-2,-4c0,-2,-1,-2,-2,-3l-3,-6c0,-3,-1,-3,-3,-7l-1,-3c0,-3,-1,-3,-2,-5l-2,-6c0,-5,-1,-5,-2,-7l-2,-12l-1,-8v-28l1,-8l1,-6l1,-5l1,-3h1v-5l3,-9l1,-2h1v-3l2,-4h1v-3l4,-8l1,-1h1v-2l1,-2l1,-1h1v-2l1,-1h1v-2l3,-3h1v-2l1,-1h1v-2l5,-5h1v-2l11,-11c2,0,2,-1,7,-6c2,0,2,-1,5,-4c2,0,2,-1,3,-2c2,0,2,-1,3,-2c2,0,2,-1,3,-2l2,-1c2,0,2,-1,3,-2l8,-4c3,0,3,-1,7,-3c3,0,3,-1,5,-2l9,-3c5,0,5,-1,8,-2l5,-1l6,-1ZM73,224h1l1,1v2h1l5,5l7,7v1h2l2,2v1h2l2,1l1,1v1h2l2,1v3l1,-2h1l8,4v1h3l6,2v1h5l3,1v1h32v-1l3,-1h5v-1l6,-2h3v-1l8,-4h1l1,2v-3l2,-1h2v-1l1,-1l2,-1h2v-1l2,-2h2v-1l5,-5h2v-1l1,-1h1v-2l5,-5h1v-2l1,-1l1,-1h1v-2l1,-1h1v-3l1,-1h1v-2l4,-8h1v-3l2,-6l2,-6h1v-7l1,-8h1l-1.3934426009654999,-103.0163941681385v-13.983605831861496h-55.213114798069v115l-1.3934426009654999,7l-1,3l-1,2l-1,2l-1,1h-1v2l-7,7h-2v1l-1,1l-4,2l-6,2h-12l-5,-1l-3,-1l-4,-2l-1,-1v-1h-2l-7,-7v-2h-1l-1,-1l-1,-2v-3h-1l-1,-2l-1,-7v-115h-56v1h-1l1,116v9h1v6h1v4h1l1,2l2,6v3h1l4,8v2h1l1,1v2h1l1,1v2h1l1,1l1,2Z" style="fill:white;"/><path d="M127,1h3v1h-3ZM120,2h2v1h-2ZM166,2h2v1h-2ZM114,3h2v1h-2ZM230,29h1l1,1v1h-1l-1,-1ZM235,33h1l1,1v1h-1l-1,-1ZM252,50h1l2,2v1h-1l-2,-2ZM34,51h1v1l-1,1h-1v-1ZM30,56h1v1l-1,1h-1v-1ZM55,57h56v1h-56ZM177,57h56l1,1v1h-1l-56,-1Z"/><path d="M278,93h1v2h-1zm-273,13h1v2h-1zm-2,8h1v2h-1zm-1,6h1v2h-1zm-1,6h1v4h-1zm285,0h1v4h-1zm1,15h1v1h-1zm-286,17h1v4h-1zm285,0h1v4h-1zm-284,8h1v2h-1zm109,6h1v2h-1zm65,0h1v3h-1zm-147,58h1l1,1v1h-1l-1-1zm229,0h1v1l-1,1h-1v-1zm-225,5h1l1,1v1h-1l-1-1zm221,0h1v1l-2,2h-1v-1zm-163,6h1l1,1v1h-1l-1-1zm-41,11h1l2,2v1h-1l-2-2zm187,0h1v1l-2,2h-1v-1zm-109,5h2v1h-2zm103,0h1v1l-1,1h-1v-1zm-94,1h2v1h-2zm12,0h2v1h-2zm-56,20h2v1h-2zm73,7h2v1h-2zm-40,1h3v1h-3z"/><path d="M158,286h4v1h-4zm-17,1h1v1h-1z"/><circle id="e1_circle" cx="143.213" cy="144" style="fill:none;stroke:black;stroke-width:1px;" r="143.358"/></svg>